<?xml version="1.0" encoding="UTF-8" standalone="no"?>
<svg
   width="199.03906pt"
   height="199.04297pt"
   viewBox="0 0 199.03906 199.04297"
   version="1.1"
   id="svg8"
   sodipodi:docname="favicon.svg"
   inkscape:version="1.3.2 (091e20e, 2023-11-25)"
   xmlns:inkscape="http://www.inkscape.org/namespaces/inkscape"
   xmlns:sodipodi="http://sodipodi.sourceforge.net/DTD/sodipodi-0.dtd"
   xmlns="http://www.w3.org/2000/svg"
   xmlns:svg="http://www.w3.org/2000/svg">
  <defs
     id="defs8" />
  <sodipodi:namedview
     id="namedview8"
     pagecolor="#ffffff"
     bordercolor="#666666"
     borderopacity="1.0"
     inkscape:showpageshadow="2"
     inkscape:pageopacity="0.0"
     inkscape:pagecheckerboard="0"
     inkscape:deskcolor="#d1d1d1"
     inkscape:document-units="pt"
     inkscape:zoom="0.16388889"
     inkscape:cx="131.18644"
     inkscape:cy="402.71186"
     inkscape:window-width="1440"
     inkscape:window-height="847"
     inkscape:window-x="0"
     inkscape:window-y="25"
     inkscape:window-maximized="1"
     inkscape:current-layer="svg8" />
  <path
     fill-rule="nonzero"
     fill="#ffffff"
     fill-opacity="1"
     d="m 45.640621,-1e-6 H 153.40233 c 13.3906,0 21.4258,0 26.7852,2.23828 7.7226,2.8086 13.8047,8.89453 16.6172,16.61719 2.2343,5.35547 2.2343,13.39062 2.2343,26.78516 V 153.40234 c 0,13.39063 0,21.42579 -2.2343,26.78516 -2.8125,7.72266 -8.8946,13.80469 -16.6172,16.61719 -5.3594,2.23828 -13.3946,2.23828 -26.7852,2.23828 H 45.640621 c -13.39453,0 -21.42968,0 -26.78906,-2.23828 -7.72266,-2.8125 -13.80469,-8.89453 -16.61719,-16.61719 C 9.9999988e-7,174.82813 9.9999988e-7,166.79297 9.9999988e-7,153.40234 V 45.640629 c 0,-13.39454 0,-21.42969 2.23437000000012,-26.78516 2.8125,-7.72266 8.89453,-13.80859 16.61719,-16.61719 C 24.210941,-9.9999997e-7 32.246091,-9.9999997e-7 45.640621,-10e-7 Z m 0,0"
     id="path1" />
  <path
     fill-rule="nonzero"
     fill="#fdcb56"
     fill-opacity="1"
     d="m 99.519531,7.765629 c -22.25391,0 -44.49219,8.49218 -61.46875,25.46875 -16.78516,16.78906 -25.25,38.71875 -25.4375,60.71875 H 186.42583 c -0.1875,-22 -8.6485,-43.92969 -25.4376,-60.71875 -16.9804,-16.97657 -39.21479,-25.46875 -61.468699,-25.46875 z m 0,0"
     id="path2" />
  <path
     fill-rule="nonzero"
     fill="#fdcb56"
     fill-opacity="1"
     d="M 99.519531,132.35547 141.42573,66.687499 H 57.613281 Z m 0,0"
     id="path3" />
  <path
     fill="none"
     stroke-width="4"
     stroke-linecap="butt"
     stroke-linejoin="miter"
     stroke="#222222"
     stroke-opacity="1"
     stroke-miterlimit="4"
     d="m 75.976562,32.058594 c 10.382813,10.382812 10.382813,27.222656 0,37.605469 -10.386718,10.386718 -27.222656,10.386718 -37.609375,0 -10.382812,-10.382813 -10.382812,-27.222657 0,-37.605469 10.386719,-10.386719 27.222657,-10.386719 37.609375,0 z m 0,0"
     id="path4" />
  <path
     fill-rule="nonzero"
     fill="#222222"
     fill-opacity="1"
     d="m 19.183591,56.535159 h 11.34375 v -11.34766 h -11.34375 z m 0,0"
     id="path5" />
  <path
     fill-rule="nonzero"
     fill="#222222"
     fill-opacity="1"
     d="m 103.53125,155.91406 c 2.21484,2.21485 2.21484,5.80469 0,8.01953 -2.21485,2.21485 -5.808599,2.21485 -8.023439,0 -2.21484,-2.21484 -2.21484,-5.80468 0,-8.01953 2.21484,-2.21875 5.808589,-2.21875 8.023439,0 z m 0,0"
     id="path6" />
  <path
     fill-rule="nonzero"
     fill="#222222"
     fill-opacity="1"
     d="m 105.3164,159.92188 36.10933,-18.05469 v 36.11328 z m 0,0"
     id="path7" />
  <path
     fill-rule="nonzero"
     fill="#222222"
     fill-opacity="1"
     d="m 93.285151,159.92188 -36.11328,-18.05469 v 36.11328 z m 0,0"
     id="path8" />
</svg>
